<?xml version="1.0" standalone="no"?>
<!DOCTYPE svg PUBLIC "-//W3C//DTD SVG 1.1//EN" "http://www.w3.org/Graphics/SVG/1.1/DTD/svg11.dtd" >
<svg xmlns="http://www.w3.org/2000/svg">
<metadata>
Created by FontForge 20120731 at Thu Mar  3 22:50:37 2016
 By Ads
</metadata>
<defs>
<font id="iconfont" horiz-adv-x="1024" >
  <font-face 
    font-family="iconfont"
    font-weight="500"
    font-stretch="normal"
    units-per-em="1024"
    panose-1="2 0 6 3 0 0 0 0 0 0"
    ascent="896"
    descent="-128"
    x-height="792"
    bbox="0 -212 1078 896"
    underline-thickness="50"
    underline-position="-100"
    unicode-range="U+0078-E621"
  />
<missing-glyph horiz-adv-x="374" 
d="M34 0v682h272v-682h-272zM68 34h204v614h-204v-614z" />
    <glyph glyph-name=".notdef" horiz-adv-x="374" 
d="M34 0v682h272v-682h-272zM68 34h204v614h-204v-614z" />
    <glyph glyph-name=".null" horiz-adv-x="0" 
 />
    <glyph glyph-name="nonmarkingreturn" horiz-adv-x="341" 
 />
    <glyph glyph-name="x" unicode="x" horiz-adv-x="1001" 
d="M281 543q-27 -1 -53 -1h-83q-18 0 -36.5 -6t-32.5 -18.5t-23 -32t-9 -45.5v-76h912v41q0 16 -0.5 30t-0.5 18q0 13 -5 29t-17 29.5t-31.5 22.5t-49.5 9h-133v-97h-438v97zM955 310v-52q0 -23 0.5 -52t0.5 -58t-10.5 -47.5t-26 -30t-33 -16t-31.5 -4.5q-14 -1 -29.5 -0.5
t-29.5 0.5h-32l-45 128h-439l-44 -128h-29h-34q-20 0 -45 1q-25 0 -41 9.5t-25.5 23t-13.5 29.5t-4 30v167h911zM163 247q-12 0 -21 -8.5t-9 -21.5t9 -21.5t21 -8.5q13 0 22 8.5t9 21.5t-9 21.5t-22 8.5zM316 123q-8 -26 -14 -48q-5 -19 -10.5 -37t-7.5 -25t-3 -15t1 -14.5
t9.5 -10.5t21.5 -4h37h67h81h80h64h36q23 0 34 12t2 38q-5 13 -9.5 30.5t-9.5 34.5q-5 19 -11 39h-368zM336 498v228q0 11 2.5 23t10 21.5t20.5 15.5t34 6h188q31 0 51.5 -14.5t20.5 -52.5v-227h-327z" />
    <glyph glyph-name="uniE600" unicode="&#xe600;" 
d="M917 361l-70 11q-6 1 -11.5 3t-10.5 5.5t-9.5 7.5t-7.5 8.5t-4 8.5q-6 17 -8.5 40.5t4.5 40.5l42 57q8 11 7 26.5t-11 25.5l-31 31q-10 10 -25.5 11t-26.5 -7l-57 -42q-11 -9 -27 -11t-27 4q-6 3 -15 9t-19 13.5t-17.5 16t-8.5 15.5l-11 70q-2 14 -13.5 24t-25.5 10h-44
q-14 0 -25.5 -10t-13.5 -24l-11 -70q-1 -9 -6 -18t-12.5 -16t-14.5 -9q-17 -6 -40.5 -8.5t-40.5 4.5l-57 42q-11 8 -26.5 7t-25.5 -11l-31 -31q-10 -10 -11 -25.5t7 -26.5l42 -57q9 -12 11 -27.5t-4 -26.5q-7 -16 -24.5 -37t-29.5 -23l-70 -11q-14 -2 -24 -13.5t-10 -25.5
v-44q0 -9 4.5 -17.5t12.5 -14.5t17 -7l70 -11q14 -2 26.5 -12t16.5 -21q2 -5 4 -13t3.5 -18t2 -19.5t-1 -18t-4.5 -12.5l-42 -57q-4 -6 -5.5 -13t-1 -14t3 -13.5t7.5 -11.5l31 -31q10 -10 25.5 -11t26.5 7l57 42q12 9 27.5 11t26.5 -4q16 -7 37 -24.5t23 -29.5l11 -70
q1 -9 7 -17t14.5 -12.5t17.5 -4.5h44q7 0 13.5 3t12 7.5t9 10.5t4.5 13l11 70q2 14 12 26.5t21 16.5q10 3 25 6t32 3.5t24 -5.5l57 -42q5 -3 10 -5t11 -2t11.5 1t10.5 3.5t9 6.5l31 31q10 10 11 25.5t-7 26.5l-42 57q-9 11 -11 27t4 27q7 16 24.5 37t29.5 23l70 11
q14 2 24 13.5t10 25.5v44q0 9 -4.5 17.5t-12.5 14.5t-17 7zM512 126q-72 0 -123 51t-51 123t51 123t123 51q35 0 67.5 -14t55.5 -37t37 -55.5t14 -67.5q0 -47 -23.5 -87t-63.5 -63.5t-87 -23.5zM512 300zM407 300q0 43 31 74t74 31t74 -31t31 -74q0 -17 -5.5 -33t-15 -29
t-22.5 -22.5t-29 -15t-33 -5.5q-28 0 -52.5 14t-38.5 38.5t-14 52.5z" />
    <glyph glyph-name="uniE601" unicode="&#xe601;" 
d="M1024 -92q0 -12 -11.5 -32.5t-34.5 -39.5t-56.5 -33.5t-77.5 -14.5h-663q-45 0 -78.5 14.5t-56.5 33.5t-34.5 39.5t-11.5 32.5l90 482q0 26 18 43.5t43 17.5q7 -3 16 -6q8 -2 19 -5l25 -7v80q0 61 23.5 116t64.5 95.5t96 64t117 23.5t117 -23.5t96 -64t64.5 -95.5
t23.5 -116v-80l25 7q11 3 19 5q9 3 16 6q26 0 43.5 -17.5t17.5 -43.5zM241 240q25 0 42.5 17t17.5 43q0 17 -8 30.5t-22 21.5v-52h-60v52q-30 -16 -30 -52q0 -26 17.5 -43t42.5 -17zM271 419q51 -11 113 -20t128 -9t128 9t114 20v85q0 51 -19 96t-52 79t-77 53.5t-94 19.5
t-93.5 -19.5t-76.5 -53.5t-52 -79t-19 -96v-85zM783 240q26 0 43.5 17t17.5 43q0 17 -8.5 30.5t-22.5 21.5v-52h-59v52q-15 -8 -23 -21.5t-8 -30.5q0 -26 18 -43t42 -17z" />
    <glyph glyph-name="uniE602" unicode="&#xe602;" 
d="M970 58q-79 117 -123 224.5t-48 229.5q-1 48 -16.5 90.5t-43.5 76t-67 58.5t-87 38q-166 47 -285 -95q-66 -80 -78 -220q-5 -53 -15.5 -102.5t-29.5 -92.5q-13 -32 -33 -66.5t-45 -75t-39 -64.5q-8 -15 -13.5 -30.5t-1.5 -21.5q7 -9 23 -15.5t31 -6.5q91 -1 413 -1
q327 0 419 1q10 0 20.5 3t20 8t14.5 11q3 4 1 13.5t-7 19.5t-10 18zM515 -207q67 0 105.5 38.5t37.5 105.5h-284q-3 -65 36 -104.5t105 -39.5z" />
    <glyph glyph-name="uniE603" unicode="&#xe603;" 
d="M687 450q0 -25 -6 -49.5t-17.5 -45.5t-27.5 -38.5t-35.5 -29.5t-42 -19t-46.5 -7q-73 0 -124 55.5t-51 134t51 133.5t124 55t124 -55t51 -134zM642 288q-47 -55 -130 -55q-40 0 -73 13.5t-57 41.5q-94 -39 -152.5 -125t-58.5 -191v-11h682v5v6q0 53 -15.5 102.5t-43.5 90
t-67 72.5t-85 51z" />
    <glyph glyph-name="uniE604" unicode="&#xe604;" 
d="M989 425h-357l134 133q-20 20 -43 37t-48 29.5t-51 21t-54 13t-57 4.5q-47 0 -92 -12t-85.5 -35.5t-74.5 -57.5q-10 -10 -19 -20.5t-17.5 -22t-15.5 -23.5t-13.5 -24t-12 -25t-9.5 -26.5t-7.5 -27t-5.5 -27t-3 -28t-1 -28.5q0 -71 27 -136.5t77.5 -116t115.5 -77.5
t136.5 -27t136.5 27t116 78q8 8 16 17l89 -78q-66 -76 -159 -119t-199 -43q-96 0 -184 37.5t-152 101t-101.5 151.5t-37.5 185t37.5 185t101.5 151.5t152 101.5t184.5 38t183.5 -37t153 -103l139 140v-357z" />
    <glyph glyph-name="uniE605" unicode="&#xe605;" horiz-adv-x="1000" 
d="M746 346h-201v201q0 13 -8.5 21.5t-21 8.5t-21.5 -8.5t-9 -21.5v-201h-201q-12 0 -21 -8.5t-9 -21t9 -21.5t21 -9h201v-201q0 -3 0.5 -6t2.5 -5l2 -6l4 -4t4.5 -3.5t5 -2.5t5.5 -1.5t6 -0.5q13 0 21.5 8.5t8.5 20.5v201h201q12 0 21 9t9 21q0 5 -1.5 9.5t-4.5 8.5
t-6.5 6.5t-8 4t-9.5 1.5z" />
    <glyph glyph-name="uniE606" unicode="&#xe606;" horiz-adv-x="1000" 
d="M350 -131l-62 61l387 386l-387 386l62 62l448 -448z" />
    <glyph glyph-name="uniE607" unicode="&#xe607;" 
d="M266 469l86 86q12 12 0 24t-24 0l-86 -86l-42 43l85 85q12 12 0 24t-24 0l-85 -85l-36 36q-7 6 -9.5 15t0 17.5t9.5 14.5l109 110q4 3 7.5 5.5t8 3.5t8.5 1t8.5 -1t8.5 -3.5t7 -5.5l188 -188l-157 -157zM150 12q-6 0 -10.5 4.5t-4.5 10.5q20 131 34 169l150 -150
q-41 -14 -169 -34zM346 67l-157 157l444 443l157 -157zM876 125l-110 -110q-10 -10 -23.5 -10t-23.5 10l-48 48l85 85q5 6 5 12.5t-5 11.5q-12 12 -24 0l-85 -85l-53 53l85 85q12 12 0 24t-24 0l-85 -85l-38 37l157 157l188 -187q6 -6 8 -14.5t-0.5 -17t-8.5 -14.5zM899 196
l-187 188l181 181q13 13 18 31t0 35.5t-18 30.5l-108 108q-13 13 -31 18t-35.5 0t-30.5 -18l-181 -181l-188 188q-10 10 -23 15t-25.5 5t-25.5 -5t-23 -15l-109 -110q-21 -20 -21 -48t21 -49l187 -188l-155 -155q-16 -16 -44 -195v-1q0 -21 13 -38q7 -7 17 -11t21 -2h2
q180 28 198 46l155 155l188 -188q20 -20 48 -20t49 20l109 109q10 9 14.5 21.5t4.5 25t-5.5 25.5t-15.5 22zM713 744q11 10 25 10t23 -10l109 -109q5 -5 8 -11.5t3 -13t-3 -13t-8 -10.5l-54 -55l-157 159z" />
    <glyph glyph-name="uniE608" unicode="&#xe608;" horiz-adv-x="1078" 
d="M137 433l-71 -195l400 -207l71 207zM614 33l-68 205l402 195l80 -193zM137 434l-137 164l407 214l130 -170zM544 642l136 170l398 -217l-130 -161zM114 186l360 -186l60 161v-373l-422 200zM969 185l-365 -185l-55 161v-373l420 200v197z" />
    <glyph glyph-name="uniE609" unicode="&#xe609;" 
d="M455.5 7q-95.5 0 -177 47.5t-129 129t-47.5 177t47.5 177t129 129t176.5 47.5q72 0 137.5 -28t113 -75.5t75.5 -113t28 -137.5q0 -95 -47.5 -176.5t-129 -129t-177 -47.5zM455 627q-110 0 -188 -78t-78 -188.5t78 -188.5t188.5 -78t188.5 78t78 188q0 73 -35.5 134
t-97 97t-134.5 36zM868 -106q-10 0 -20 4t-18 12l-184 184q-16 16 -16 38t15.5 38t38 16t38.5 -16l184 -185q16 -15 16 -37.5t-16 -37.5q-5 -5 -11 -9t-13 -5.5t-14 -1.5z" />
    <glyph glyph-name="uniE60A" unicode="&#xe60a;" 
d="M512 139q-18 0 -30 13l-192 191q-12 13 -12 30.5t12 29.5q9 9 20 11.5t22 0t19 -11.5l161 -161l161 161q8 9 19 11.5t22 0t20 -11.5q12 -12 12 -29.5t-12 -30.5l-192 -191q-12 -13 -30 -13z" />
    <glyph glyph-name="uniE60B" unicode="&#xe60b;" 
d="M755 748q-26 0 -52 -7t-49 -19t-44.5 -29t-39.5 -37t-32.5 -42t-25.5 -45q-35 74 -101 126.5t-142 52.5q-111 0 -190 -79t-79 -190q0 -62 17 -116.5t48.5 -98.5t70.5 -84.5t88 -83t95.5 -84t99 -97.5t93.5 -115q39 58 90 114.5t97.5 99t96 85.5t89 84t72 85t50 97.5
t17.5 113.5q0 111 -79 190t-190 79z" />
    <glyph glyph-name="uniE60C" unicode="&#xe60c;" 
d="M824 -96q5 -28 -9.5 -39t-40.5 2l-253 125l-248 -138q-26 -14 -40.5 -4t-10.5 39l43 281l-206 193q-21 19 -16 36.5t34 22.5l280 48l121 257q12 27 30 27t31 -25l130 -251l281 -34q29 -4 35 -21t-15 -37l-199 -204zM824 -96z" />
    <glyph glyph-name="uniE60D" unicode="&#xe60d;" 
d="M583 438q-30 28 -53 28q-14 0 -28.5 -8t-28.5 -20q-7 -8 -280 -254v-188q0 -3 0.5 -6t1.5 -5.5t3 -5t4 -5.5q9 -9 22 -9h173q7 0 11.5 4.5t4.5 11.5v134q1 7 4 11q5 5 11 5h195q3 0 6 -1.5t5 -3.5q5 -4 5 -11v-134q0 -3 1 -6t3 -5q5 -5 11 -5h177q13 0 22 9t9 22v187
q-271 247 -279 255zM976 272q0 10 -5 19.5t-15 18.5l-22 22q-8 9 -18.5 19t-23 21.5t-26.5 24.5t-29 28q-7 7 -14.5 14t-15.5 14.5t-15.5 15t-15.5 14.5q-31 30 -62 59q-28 27 -54 52q-24 22 -42 40q-17 16 -22 20q-28 27 -67 26q-20 0 -38.5 -8t-34.5 -25q-3 -2 -11 -9.5
t-21 -19.5q-27 -25 -65 -61q-38 -35 -82 -75q-42 -38 -83 -76q-19 -17 -35.5 -32.5t-30.5 -28.5q-28 -25 -33 -30q-14 -14 -15 -36t17 -38q16 -14 38 -13.5t36 11.5q4 3 26 23q23 21 52 48q31 28 66.5 60.5t67.5 62.5q31 29 57 53q24 22 33 30q27 24 55 25q9 0 18.5 -2.5
t19 -8t18.5 -14.5q6 -5 30 -27q24 -23 55 -52q16 -15 33 -31t35 -33q12 -11 23.5 -22t23 -21t21.5 -20q39 -36 55 -51q22 -21 27 -24q13 -12 35.5 -13t39.5 14q15 14 14 36z" />
    <glyph glyph-name="uniE60E" unicode="&#xe60e;" 
d="M862 229q-17 42 -43 76q22 17 22 55q0 13 -3 24.5t-8 19.5t-12 13t-15 5l2 20q1 10 1 20q0 119 -84.5 202.5t-203.5 83.5t-203.5 -83.5t-84.5 -202.5q0 -11 1 -22t3 -22q-25 -16 -25 -58q0 -22 9 -39q-9 -10 -18 -21.5t-17.5 -25t-15.5 -28.5q-19 -38 -25.5 -78t-1.5 -66
t18 -33q10 -5 32.5 10.5t46.5 44.5q8 -70 62 -125q-43 -12 -68 -35t-21 -48q5 -32 51.5 -49.5t108.5 -10.5q15 1 29 4t26.5 7.5t23.5 9.5t20.5 11t16.5 13t12 14h16h6h6h7q3 0 7 1q6 -9 15 -16.5t20.5 -14t25.5 -12t29.5 -9.5t31.5 -6q20 -3 39 -2.5t35.5 3.5t30.5 8.5
t24.5 12.5t17 16.5t7.5 19.5q3 25 -21 48t-66 36q51 52 60 118q22 -31 43 -48t32 -15q5 1 9 9t6.5 20t3 29t-1 35t-6.5 39.5t-13 41.5z" />
    <glyph glyph-name="uniE60F" unicode="&#xe60f;" 
d="M278 372v-367h445v367h155l-366 366l-366 -366h132zM278 372z" />
    <glyph glyph-name="uniE610" unicode="&#xe610;" 
d="M747 371v367h-446v-367h-155l366 -366l366 366h-131zM747 371z" />
    <glyph glyph-name="uniE611" unicode="&#xe611;" 
d="M854 747h-683q-44 0 -75 -31t-31 -75v-683q0 -44 31 -75t75 -31h683q44 0 75 31t31 75v683q0 44 -31 75t-75 31zM694 96v289q-19 41 -46.5 70.5t-63.5 45.5t-76 16q-61 0 -110.5 -36.5t-77.5 -100.5v-258q31 -23 73 -40q9 11 23 14.5t28 -2.5q16 -8 21.5 -24.5t-2 -33
t-23.5 -22.5t-32 2q-13 6 -19.5 18t-4.5 26q-24 9 -44.5 20.5t-36.5 24.5q-37 5 -67 26t-47.5 54t-17.5 72q0 47 26 85t67 56q23 55 59 95t83.5 62t101.5 22q85 0 150.5 -51.5t98.5 -139.5q39 -19 62.5 -56t23.5 -82q0 -63 -43.5 -107.5t-105.5 -44.5z" />
    <glyph glyph-name="uniE612" unicode="&#xe612;" 
d="M392 211l-171 -171l-30 31l171 171l-48 48l-220 -220v0v0l-89 -273l273 88h1v0l219 220zM569 449l79 79l30 -30l-79 -80l106 -106l127 127l-185 184l-126 -126zM831 807l-121 -121l185 -185l121 122zM790 235q-16 0 -33.5 -5t-34.5 -14l-294 294q19 37 19 67
q0 25 -6.5 50t-18.5 47t-28 42.5t-36 37t-42.5 28.5t-47 18.5t-49.5 6.5h-2l-21 -21q11 -11 29 -28q43 -43 50.5 -55t7.5 -41q-1 -8 -1 -12q0 -35 -43 -78t-77 -43h-10h-8h-7h-9q-4 0 -8 1l-8 3q-3 1 -8.5 5.5t-9 8t-12 11.5t-14.5 14.5t-19 19t-24 23.5h-1q-20 -20 -20 -21
q1 -88 71.5 -158.5t158.5 -70.5q31 0 67 18l294 -295q-18 -35 -18 -65q0 -35 12.5 -69t34.5 -62.5t50.5 -51t62.5 -35t68 -12.5h2q1 0 21 21q-11 11 -29 28q-43 43 -50.5 55t-6.5 41v12q0 17 12.5 38.5t30.5 39.5t39.5 30.5t37.5 12.5h10h8h7q5 0 9 -1h6q4 -1 8 -3l7 -3
q3 -2 8 -6.5t9 -8t12 -11.5l14 -14l18 -18l21 -21l21 20q-1 44 -20.5 86t-51 73.5t-73.5 51t-85 19.5zM790 235z" />
    <glyph glyph-name="uniE613" unicode="&#xe613;" 
d="M-53 853zM857 436v195h-207l-141 138l-148 -143h-200v-203l-142 -138l148 -145v-195h207l141 -138l148 143h200v203l142 138zM512 9q-118 0 -202 81.5t-84 197.5t84 197.5t202 81.5t202 -81.5t84 -197.5t-84 -197.5t-202 -81.5zM691 288q0 -72 -52.5 -123t-126.5 -51
t-126.5 51t-52.5 123t52.5 123t126.5 51t126.5 -51t52.5 -123z" />
    <glyph glyph-name="uniE614" unicode="&#xe614;" horiz-adv-x="1025" 
d="M549 -37h-134v93h248q10 0 17.5 6.5t7.5 16.5v486q0 5 -2 9t-5.5 7.5t-8 5.5t-9.5 2h-637q-11 0 -18.5 -7t-7.5 -17v-486q0 -10 7.5 -16.5t18.5 -6.5h247v-93h-133q-8 0 -15 -3.5t-11 -10.5t-4 -15v-40h468v40q0 12 -8.5 20.5t-20.5 8.5zM73 128v388h543l-1 -388h-542z
M991 721h-550q-13 0 -23 -7.5t-10 -18.5v-87h255q12 0 22.5 -6t16.5 -16t6 -21v-486q0 -7 -2.5 -13.5t-6.5 -11.5t-9.5 -9.5t-12.5 -6.5t-14 -2h-229v-53h115q20 0 34.5 -14.5t14.5 -34.5v-32h393q14 0 23.5 7.5t9.5 18.5v767q0 11 -9.5 18.5t-23.5 7.5zM806 269
q-12 0 -22 6t-16 15.5t-6 21.5q0 17 13 29.5t31 12.5t30.5 -12.5t12.5 -29.5q0 -28 -26 -39q-9 -3 -17 -4zM931 269q-12 0 -22 6t-16 15.5t-6 21.5q0 17 13 29.5t31 12.5q9 0 17 -3.5t14 -9t9 -13.5t3 -16q0 -18 -12.5 -30.5t-30.5 -12.5zM974 423q0 -4 -1.5 -7.5t-4 -6
t-6 -4t-7.5 -1.5h-215v182h215q8 0 13.5 -5.5t5.5 -14.5v-143zM557 483q-11 0 -18.5 -7.5t-7.5 -17.5q0 -6 2.5 -11t6.5 -8l-86 -191q-2 1 -4 1h-2h-1l-65 113q2 1 4.5 2.5t3.5 3.5l4 6q1 2 1.5 4.5t0.5 5.5q0 11 -7.5 18.5t-18 7.5t-18 -7.5t-8.5 -18.5q0 -7 5 -14l-63 -88
q-5 3 -11 3q-11 0 -19 -9l-26 10q0 10 -7.5 17t-17.5 7q-11 0 -18.5 -7.5t-7.5 -17.5q0 -8 4 -14l-43 -47q-4 1 -9 1q-10 0 -17.5 -7.5t-7.5 -18t7.5 -18t17.5 -7.5q8 0 13.5 3.5t9 9.5t3.5 13q0 8 -5 15l42 46q5 -2 11 -2q14 0 22 13l23 -9l-1 -4q0 -10 7.5 -17.5
t18.5 -7.5t18.5 7.5t7.5 17.5q0 4 -1 7.5t-3 6.5l62 88l8 -2l66 -114q-5 -4 -8 -9.5t-3 -11.5q0 -7 3.5 -13t9.5 -9.5t13 -3.5q10 0 18 7.5t8 18.5q0 10 -8 17l87 192l4 -1q10 0 18 7.5t8 18.5q0 7 -3.5 12.5t-9.5 9t-13 3.5z" />
    <glyph glyph-name="uniE615" unicode="&#xe615;" 
d="M64 351h392v392h-26q-47 0 -80.5 -43t-33.5 -104v-105h-105q-61 0 -104 -33.5t-43 -80.5v-26zM568 -153h25q24 0 45 11.5t36 31.5t24.5 47t9.5 57v105h104q61 0 104 33.5t43 80.5v26h-391v-392zM430 -153h26v392h-392v-26q0 -47 43 -80.5t104 -33.5h105v-105
q0 -61 33.5 -104t80.5 -43zM568 351h391v26q0 13 -3.5 26t-11 24t-17.5 21t-22.5 18t-27 13.5t-31 8.5t-34.5 3h-104v105q0 40 -15.5 73.5t-42 53.5t-57.5 20h-25v-392z" />
    <glyph glyph-name="uniE616" unicode="&#xe616;" 
d="M177 556q19 0 36 9l160 -154l39 40l-160 153q8 17 8 36q0 34 -24 59l-40 39l-118 -118l39 -39q25 -25 60 -25zM196 659q3 -2 5 -5.5t3 -7t1 -6.5q0 -6 -2.5 -11t-6.5 -9t-9 -6t-10 -2q-12 0 -20 8zM838 18l-160 167l-39 -39l160 -167zM917 97l-177 184l-39 -40l176 -183
q25 -25 25 -59.5t-24 -59.5q-12 -12 -28 -18t-31.5 -6t-31 6t-27.5 18l-178 184l-39 -39l177 -184q41 -41 98.5 -41t98.5 41q27 27 36.5 62.5t0 71.5t-36.5 63zM721 320q19 0 38 4t36.5 11t33.5 17.5t30 24.5l51 51l-39 39l-51 -50q-41 -41 -99 -41q-8 0 -16 1t-15.5 2.5
t-15 4t-14.5 6t-13.5 7.5t-12.5 9t-12 11q-41 40 -41 98q0 28 11 53.5t30 44.5l51 51l-39 40l-51 -51q-57 -57 -57 -138t57 -138q28 -27 63.5 -42t74.5 -15zM673 625q-15 -16 -23.5 -36.5t-8.5 -42.5t8.5 -42.5t23.5 -36.5q33 -32 79 -32t79 32l20 20l59 -59l39 39l-98 99
l-59 -59q-4 -4 -8.5 -7t-9.5 -5t-10.5 -3.5t-11.5 -1.5q-7 0 -14 2t-13.5 6t-11.5 9q-17 16 -17 39q0 8 2 15t6 13t9 12l59 59l-99 98l-39 -39l59 -59zM233 -27v55h-55v-55h55zM471 393l-39 -40l111 -109l39 39zM262 -61q-15 -15 -36.5 -20t-43 1t-37.5 21q-11 12 -17.5 27
t-6.5 32q0 16 6 31t17 26l287 208l-33 45l-289 -209l-3 -3q-41 -41 -41 -98.5t41 -98t98.5 -40.5t98.5 40l213 292l-45 32z" />
    <glyph glyph-name="uniE617" unicode="&#xe617;" 
d="M467 329q-1 0 -1.5 -1t-2.5 -3t-4.5 -3.5t-7 -2.5t-10 -0.5t-13 3.5t-16.5 7l-2 3l-6 4q-3 4 -5.5 8.5t-4 10.5t-0.5 12l-17 9q-26 7 -47 -10q-1 -1 -2 -3.5t-3 -8.5t-2 -11t2.5 -10.5t8 -8.5t17.5 -2.5t29 5.5q0 -1 0.5 -3.5t3 -9.5t6 -12t10 -12.5t16 -10t22.5 -4
t29 3.5v160q-8 -1 -13 -1q-54 -4 -41 -47q11 -34 45 -56zM64 356q0 -129 91.5 -220t219.5 -91q16 0 32 1.5t31 4.5t29 7v103q-5 2 -10 5t-10.5 7t-10.5 7l-8 19q-5 21 9 36q0 1 -1 2.5t-3.5 5t-6 7.5t-10 9t-14.5 9t-19.5 8t-25.5 6l-55 4q-25 27 -29 57q-23 23 -62 34
q-1 0 -3 1t-6.5 4.5t-8.5 7.5t-7.5 11.5t-5 16t1.5 21.5t9 27q1 2 2.5 4.5t5 10.5t5.5 15t3.5 16t0.5 15.5t-6 12t-14 6.5q-22 -13 -30 -13l-9 5q-1 2 -1 3q1 1 1.5 2.5t3 6.5t5 9.5t7.5 10t10 10t12 8.5t14.5 6t16.5 1.5t19 -4.5q27 -12 31 -32q1 -1 2 -1.5t6 -1t11.5 0.5
t18 6.5t24.5 14.5q2 0 5 -0.5t10 -3t10 -5.5t1 -9t-12 -13q-1 -1 -3 -2q-10 -7 -14.5 -10.5t-9 -8t-4 -6.5t3 -5t9 -5t17.5 -5q1 -1 2.5 -1t7 -1t9.5 0t10 3.5t8 8t4 14t-1 21.5q3 3 8.5 5.5t27.5 -3.5t48 -27v128q-44 14 -92 14q-129 0 -220 -92q-90 -92 -91 -219zM501 782
v-796h459v796h-459zM807 75h-153v65h153v-65zM807 194h-153v66h153v-66zM899 506h-337v65h337v-65zM899 623h-337v66h337v-66z" />
    <glyph glyph-name="uniE618" unicode="&#xe618;" 
d="M966 -128h-446q-24 0 -41 17t-17 41v58v14q2 41 19 64q45 59 119 80l50 -173q0 -12 8.5 -20.5t19.5 -8.5q4 0 7 1t6 2.5t5.5 3.5t4.5 4.5t3.5 5t2 6t0.5 6.5v137q0 15 10.5 26t25.5 11t25.5 -11t10.5 -26v-137q0 -8 4 -14.5t10.5 -10.5t14.5 -4q12 0 20.5 8.5t8.5 20.5
l49 173q11 -3 21.5 -7t20 -8.5t18 -10t16.5 -11.5t15.5 -12.5t14.5 -14.5t13 -16q18 -23 19 -64v-14v-58q0 -16 -7.5 -29.5t-21 -21t-29.5 -7.5zM894 413q0 -33 -10 -68.5t-28.5 -67.5t-48 -52.5t-64.5 -20.5q-46 0 -82 35.5t-52.5 82t-16.5 91.5q0 63 44.5 108t106.5 45
q41 0 76 -20.5t55 -56t20 -76.5zM682 598v1h-184v-165h72q-3 -14 -6 -33h-66v-166h44q-24 -16 -42 -33h-2v-3q-18 -16 -34 -36v39h-178q25 -130 78 -216q4 -1 8.5 -2t7 -1.5t9.5 -2t8 -1.5v-4l-1 -4q0 -8 2 -25q-112 19 -203 85.5t-143 168t-52 217.5q0 65 17 127t48 114.5
t75.5 97t97 75.5t114.5 48t127 17q38 0 76 -6t72.5 -17.5t67 -28t62 -37.5t55.5 -46t47.5 -53.5t39 -60.5t30.5 -67q-62 52 -136 52q-57 0 -111 -34zM323 -1q-47 84 -70 203h-165q39 -70 99.5 -122.5t135.5 -80.5zM72 235h175q-6 38 -9.5 79.5t-4.5 85.5h-200q3 -83 39 -165
zM33 434h200q1 87 14 165h-176q-35 -78 -38 -165zM88 632h164q23 118 70 203q-145 -55 -225 -188q-5 -8 -9 -15zM465 863q-50 -1 -102 -15q-53 -88 -78 -216h179v231h1zM465 599h-185q-6 -38 -9.5 -79t-4.5 -86h199v165zM465 400h-199q1 -84 14 -165h185v165zM498 863v-231
h179q-14 71 -34.5 124.5t-42.5 90.5q-9 2 -17 4t-16.5 4t-16.5 3l-18 2q-8 1 -17 2t-17 1zM641 833q20 -37 38 -87t31 -114h160q-13 23 -28 44t-32.5 40t-37 36.5t-40.5 32t-44 27t-47 21.5z" />
    <glyph glyph-name="uniE619" unicode="&#xe619;" 
d="M1024 576l-512 256l-512 -256l512 -256zM512 747l342 -171l-342 -171l-342 171zM960 432l64 -48l-512 -256l-512 256l64 48l448 -229zM960 240l64 -48l-512 -256l-512 256l64 48l448 -229z" />
    <glyph glyph-name="uniE61A" unicode="&#xe61a;" 
d="M512 750q-91 0 -174.5 -36t-143.5 -96t-96 -143.5t-36 -174.5t36 -174.5t96 -143.5t143.5 -96t174.5 -36t174.5 36t143.5 96t96 143.5t36 174.5t-36 174.5t-96 143.5t-143.5 96t-174.5 36zM512 -79q-77 0 -147.5 30t-121 80.5t-80.5 121t-30 147.5q0 103 50.5 190.5
t138 138t190.5 50.5t190.5 -50.5t138 -138t50.5 -190.5t-50.5 -190.5t-138 -138t-190.5 -50.5zM658 512q-5 13 -20 13h-252q-6 0 -12 -4t-8 -9l-45 -115q-6 -13 -6 -27v-56q0 -3 1.5 -5.5t3 -4.5t4 -3t5.5 -1h366q5 0 9.5 4t4.5 10v56q0 3 -0.5 5.5t-0.5 5.5l-2 6
q0 3 -1 5.5t-2 4.5zM371 342q0 -6 -4 -10t-10 -4q-5 0 -9.5 4t-4.5 10t4.5 10t9.5 4q6 0 10 -4t4 -10zM428 342q0 -6 -4.5 -10t-9.5 -4q-4 0 -7.5 2t-5 5t-1.5 7q0 6 4 10t10 4q5 0 9.5 -4t4.5 -10zM484 342q0 -6 -4 -10t-10 -4t-10 4t-4 10q0 3 1 5.5t3 4.5t4.5 3t5.5 1
q6 0 10 -4t4 -10zM681 342q0 -3 -1.5 -5.5t-3 -4.5t-4.5 -3t-5 -1q-4 0 -7.5 2t-5 5t-1.5 7q0 3 1 5.5t3 4.5t4.5 3t5.5 1t6.5 -2t5.5 -5t2 -7zM315 202q0 -3 1.5 -5.5t3 -4.5t4 -3t5.5 -1h366q5 0 9.5 4t4.5 10v56q-2 12 -14 14h-366q-5 0 -9.5 -4t-4.5 -10v-56zM653 230
q0 4 1.5 7t5 5t7.5 2q5 0 9.5 -4t4.5 -10t-4.5 -10t-9.5 -4q-3 0 -5.5 1t-4.5 3t-3 4.5t-1 5.5zM456 230q0 6 4 10t10 4t10 -4t4 -10t-4 -10t-10 -4q-3 0 -5.5 1t-4.5 3t-3 4.5t-1 5.5zM400 230q0 3 1 5.5t3 4.5t4.5 3t5.5 1q5 0 9.5 -4t4.5 -10q0 -3 -1.5 -5.5t-3 -4.5
t-4.5 -3t-5 -1q-6 0 -10 4t-4 10zM343 230q0 6 4.5 10t9.5 4q6 0 10 -4t4 -10t-4 -10t-10 -4q-5 0 -9.5 4t-4.5 10zM315 89q2 -12 14 -14h366q5 0 9.5 4t4.5 10v56q0 6 -4.5 10t-9.5 4h-366q-12 -1 -14 -14v-56zM653 117q0 3 1 5.5t3 4.5t4.5 3t5.5 1t6.5 -1.5t5.5 -5
t2 -7.5q0 -5 -4.5 -9.5t-9.5 -4.5q-13 2 -14 14zM456 117q0 6 4 10t10 4t10 -4t4 -10q0 -5 -4 -9.5t-10 -4.5q-13 2 -14 14zM400 117q0 6 4 10t10 4q5 0 9.5 -4t4.5 -10q0 -3 -1.5 -5.5t-3 -4t-4.5 -3t-5 -1.5q-13 2 -14 14zM343 117q0 6 4.5 10t9.5 4q6 0 10 -4t4 -10
q0 -5 -4 -9.5t-10 -4.5q-12 2 -14 14z" />
    <glyph glyph-name="uniE61B" unicode="&#xe61b;" 
d="M670 422h-62l-24 19q-3 3 -10 4h-2t-4 -1h-2l-4 -2q-4 -2 -4 -6l-25 -58l-35 110q-3 8 -15 8q-10 0 -13 -7l-44 -103l-43 33q-4 3 -10 3h-64v-20h57l55 -43q2 -1 5 -2t6 -1q4 0 8 2t6 5l36 84l35 -111q3 -8 14 -8q13 0 14 9l33 78l12 -10q2 -1 5 -2l7 -1h68v20zM681 173
l-57 85l-4 4q-1 1 -3 2q52 45 64 111q16 80 -29.5 147t-125 82.5t-147 -30t-82.5 -125.5q-7 -39 1 -77.5t29 -69t53.5 -52.5t71.5 -30q23 -4 45 -3t43 6.5t40 15.5q1 -5 3 -9l57 -84q6 -8 16 -10t18.5 3.5t10 15.5t-3.5 18zM462 268q-60 12 -94 62t-22.5 110t61.5 94
t110 22.5t94 -62t22 -109.5q-7 -40 -32.5 -69.5t-62.5 -42t-76 -5.5zM462 268zM804 687v0l8 -9q5 -4 9.5 -9t8.5 -10l8 -10l8 -10q53 -72 75 -157t9 -174q-14 -96 -66 -177q-7 -11 -19.5 -13.5t-24 4.5t-14 20t4.5 24q22 34 36 72t20 79q11 77 -9 151.5t-63 132.5t-109 98
t-142 51q-76 10 -149 -8.5t-135 -64.5q-40 -30 -71 -69.5t-50.5 -85.5t-27.5 -96q-21 -151 67 -276q84 -117 224 -150q17 -4 33 -6q66 -10 131 3.5t121 47.5q12 7 24.5 4t19.5 -14.5t4 -24t-15 -19.5q-136 -83 -294 -60q-120 17 -213 90.5t-137.5 183.5t-27.5 230
q13 88 58 164t116.5 129.5t156.5 75t174 9.5q146 -21 251 -126zM680 528z" />
    <glyph glyph-name="uniE61C" unicode="&#xe61c;" 
d="M869 770h-721q-42 0 -63.5 -23t-21.5 -67v-518q0 -48 25 -73t72 -25q21 2 28.5 -2.5t3.5 -18.5l-28 -93q-3 -11 5.5 -17.5t17.5 -1.5l221 121q11 6 23 9t24 3h399q47 0 73 25.5t26 73.5v533q0 28 -10 44.5t-28 23t-46 6.5zM739 215h-462q-8 0 -15 4t-11 10.5t-4 14
t4 14.5t11 10.5t15 3.5h462q12 0 20.5 -8.5t8.5 -20t-8.5 -20t-20.5 -8.5zM739 387h-462q-8 0 -15 4t-11 10.5t-4 14.5q0 12 8.5 20t21.5 8h462q12 0 20.5 -8t8.5 -20t-8.5 -20.5t-20.5 -8.5zM739 559h-462q-13 0 -21.5 8.5t-8.5 20.5t8.5 20.5t21.5 8.5h462q6 0 11.5 -2.5
t9.5 -6.5t6 -9t2 -11q0 -8 -4 -14.5t-10.5 -10.5t-14.5 -4z" />
    <glyph glyph-name="uniE61D" unicode="&#xe61d;" 
d="M238 421q11 0 21 4t17.5 11.5t12 17.5t4.5 21q0 23 -16.5 39t-39 16t-38.5 -16t-16 -39q0 -11 4.5 -21t11.5 -17.5t17.5 -11.5t21.5 -4zM421 421q11 0 21 4t17.5 11.5t11.5 17.5t4 21q0 23 -16 39t-38.5 16t-38.5 -16t-16 -39q0 -14 7 -27t20 -20t28 -7zM603 421
q12 0 22 4t17.5 11.5t11.5 17.5t4 21q0 23 -16 39t-38.5 16t-38.5 -16t-16 -39q0 -6 1 -12t4 -11.5t6.5 -10.5t8.5 -8.5t10.5 -6.5t11.5 -4t12 -1zM841 201v549q0 16 -9 25t-18 10l-9 1h-768h-5q-2 0 -8 -2t-11 -5.5t-9 -11t-4 -17.5v-549q0 -10 4 -17.5t9 -11t11 -5.5t8 -2
h5h109v-183l183 183h476q16 0 25 9t10 18zM768 238h-469l-22 -22l-58 -58v7v73h-146v475h695v-475zM987 677h-109v-74h73v-475h-146v-79l-80 79h-359v-73h329l183 -183v183h109h5q2 0 8 2t11 5.5t9 11t4 17.5v549q0 16 -9 25.5t-18 10.5z" />
    <glyph glyph-name="uniE61E" unicode="&#xe61e;" 
d="M941 609q-5 -8 -14.5 -22t-43.5 -54t-73.5 -77t-106.5 -84t-140.5 -83.5t-176 -66t-212.5 -39.5l53 53q180 171 354 220l20 11q14 13 -41 8q-6 0 -16 -1.5t-41 -8.5t-62 -17.5t-74 -31t-81.5 -46.5t-80 -66.5t-74.5 -89.5q-1 7 -2 17.5t0.5 42.5t7.5 61.5t23.5 67
t44 65.5t73.5 51t109 30h4q114 12 215 13t165 8t170 39zM581 282q-10 -1 -19 -4.5t-16 -7.5l-224 -167q-1 -2 -2 -6q-2 -18 4 -30t15.5 -15.5t19.5 -4t17 1t7 2.5l154 104q28 8 42.5 6t19.5 -12t4 -20t-5 -19l-7 -9l-182 -110h-258q-1 -1 -3.5 -1.5t-3.5 -1.5
q-35 -32 -5 -66q4 -3 7 -4l377 -3l219 165l182 4v200z" />
    <glyph glyph-name="uniE61F" unicode="&#xe61f;" 
d="M811 448q-6 0 -10.5 -3t-7.5 -8t-3 -11v-342q0 -17 -12.5 -29.5t-30.5 -12.5h-512q-18 0 -30.5 12.5t-12.5 29.5v599q0 11 5.5 21t15.5 15.5t22 5.5h384q9 0 15 6.5t6 15.5q0 5 -2.5 10t-7.5 8t-11 3h-384q-36 0 -61 -25t-25 -60v-599q0 -35 25 -60t61 -25h512
q36 0 61 25t25 60v342q0 5 -2 8.5t-4.5 6.5t-6.5 5t-9 2zM869 761.5q-6 6.5 -15 6.5t-15 -6l-534 -534q-6 -7 -6 -15.5t6 -15t15 -6.5q4 0 8 1.5t7 5.5l534 534q6 6 6 14.5t-6 15z" />
    <glyph glyph-name="uniE620" unicode="&#xe620;" 
d="M816 703h-54v38q0 6 -3 10.5t-7 7t-10 2.5q-3 0 -6 -1t-5.5 -3t-4 -4t-2.5 -5t-1 -7v-38h-54v38q0 6 -2.5 10.5t-7 7t-9.5 2.5q-4 0 -7.5 -1.5t-6 -4t-4 -6.5t-1.5 -8v-38h-54v38q0 8 -5.5 14t-13.5 6t-13.5 -6t-5.5 -14v-38h-54v38q0 8 -5.5 14t-13.5 6t-13.5 -6
t-5.5 -14v-38h-54v38q0 4 -1.5 8t-4 6.5t-6 4t-7.5 1.5t-7.5 -1.5t-6 -4t-4 -6.5t-1.5 -8v-38h-54v38q0 8 -5.5 14t-13.5 6q-4 0 -7.5 -1.5t-6.5 -4t-4.5 -6.5t-1.5 -8v-38h-54q-24 0 -41 -17t-17 -41v-748q0 -24 17 -41t41 -17h608q24 0 41 17t17 41v748q0 24 -17 41
t-41 17zM816 542h-86q-8 0 -13.5 -6t-5.5 -14t5.5 -13.5t13.5 -5.5h86v-606h-608v606h414q5 0 9.5 2.5t7 7t2.5 9.5q0 8 -5.5 14t-13.5 6h-414v103h54v-40q0 -8 6 -13.5t14 -5.5t13.5 5.5t5.5 13.5v40h54v-40q0 -5 2.5 -9.5t7 -7t9.5 -2.5q4 0 7.5 1.5t6 4t4 6t1.5 7.5v40
h54v-40q0 -8 5.5 -13.5t13.5 -5.5t13.5 5.5t5.5 13.5v40h54v-40q0 -8 5.5 -13.5t13.5 -5.5q3 0 6 1t5.5 2.5t4 4t2.5 5.5t1 6v40h54v-40q0 -4 1.5 -7.5t4 -6t6 -4t7.5 -1.5t7.5 1.5t6 4t4 6t1.5 7.5v40h54v-40q0 -8 5.5 -13.5t13.5 -5.5t14 5.5t6 13.5v40h54v-103zM466 356
q0 -8 6 -13.5t14 -5.5h235q8 0 13.5 5.5t5.5 13.5t-5.5 13.5t-13.5 5.5h-235q-6 0 -10 -2.5t-7 -7t-3 -9.5zM377 375h-74q-8 0 -13.5 -5.5t-5.5 -13.5q0 -3 1 -5.5t2 -4.5t3 -4t4 -3t4.5 -1.5t4.5 -0.5h74q8 0 14 5.5t6 13.5q0 5 -3 9.5t-7 7t-10 2.5zM721 274h-235
q-4 0 -7.5 -1.5t-6.5 -4.5t-4.5 -6.5t-1.5 -7.5q0 -3 1 -6t3 -5t4.5 -4t5.5 -3t6 -1h235q5 0 9.5 2.5t7 7t2.5 9.5q0 8 -5.5 14t-13.5 6zM377 274h-74q-8 0 -13.5 -6t-5.5 -14t5.5 -13.5t13.5 -5.5h74q8 0 14 5.5t6 13.5t-6 14t-14 6zM721 168h-235q-17 0 -19 -17l-1 -3
q0 -8 6 -13.5t14 -5.5h235q5 0 9.5 2.5t7 7t2.5 9.5q0 8 -5.5 14t-13.5 6zM377 168h-74q-3 0 -6 -1t-5 -3t-4 -4.5t-3 -5.5t-1 -6q0 -5 2.5 -9.5t7 -7t9.5 -2.5h74q8 0 14 5.5t6 13.5q0 5 -3 9.5t-7 7.5t-10 3zM721 55h-235q-8 0 -14 -5.5t-6 -13.5t6 -14t14 -6h235q3 0 6 1
t5 3t4 4.5t3 5.5t1 6q0 5 -2.5 9.5t-7 7t-9.5 2.5zM377 55h-74q-3 0 -6 -1t-5 -2.5t-4 -4t-3 -5.5t-1 -6q0 -5 2.5 -9.5t7 -7.5t9.5 -3h74q6 0 10 3t7 7.5t3 9.5q0 8 -6 13.5t-14 5.5z" />
    <glyph glyph-name="uniE621" unicode="&#xe621;" 
d="M160 752h704q20 0 34 14t14 34t-14 34t-34 14h-704q-20 0 -34 -14t-14 -34t14 -34t34 -14zM934 704h-844l-90 -240q0 -53 37.5 -90.5t90.5 -37.5t90.5 37.5t37.5 90.5q0 -53 37.5 -90.5t90.5 -37.5t90.5 37.5t37.5 90.5q0 -53 37.5 -90.5t90.5 -37.5t90.5 37.5t37.5 90.5
q0 -53 37.5 -90.5t90.5 -37.5t90.5 37.5t37.5 90.5zM880 289q-6 0 -14 2h-1h-2q-1 0 -3 0.5t-3 1.5l-8 2q-4 1 -8.5 2.5t-8.5 2.5v-236h-640v236q-11 -4 -25 -7q-1 -1 -3 -1l-3 -1h-2h-1q-2 -1 -3.5 -1t-3.5 -0.5t-3 -0.5h-4q-8 -1 -16 -1q-16 0 -32 3v-323q0 -20 14 -34
t34 -14h736q20 0 34 14t14 34v323q-16 -3 -32 -3h-8q-4 0 -8 1z" />
  </font>
</defs>
</svg>
